# xmcd
#
# Track frame offsets: 
#        150
#        13587
#        26432
#        40885
#        57450
#        77355
#        84827
#        87832
#        99517
#        122982
#        151055
#        172185
#        185040
#        197792
#        208432
#        226135
#        238115
#        257942
#        272672
#        286872
#        303807
#        322702
#
# Disc length: 4524 seconds
#
# Revision: 0
# Processed by: cddbd v1.5.2PL0 Copyright (c) Steve Scherf et al.
# Submitted via: ExactAudioCopy v0.95b3
#
DISCID=2211aa16
DTITLE=The Beatles  - Backyard Spool (Masterdisc)  FLAC
DYEAR=1900
DGENRE=
TTITLE0=Leave My Kitten Alone
TTITLE1=If You've Got Troubles
TTITLE2=I'm Looking Through You
TTITLE3=Ob-La-Di, Ob-La-Da+Xmastime Is Here Again
TTITLE4=Strawberry Fields Forever
TTITLE5=A Day In The Life
TTITLE6=A Day In The Life
TTITLE7=A Day In The Life
TTITLE8=A Day In The Life
TTITLE9=You Know My Name (Look Up The Number)
TTITLE10=I Am The Walrus
TTITLE11=The Fool On The Hill
TTITLE12=Magical Mystery Tour
TTITLE13=Lady Madonna
TTITLE14=Across The Universe
TTITLE15=Everybody's Got Something To Hide Except Me And My Monkey
TTITLE16=Yer Blues
TTITLE17=Back In The USSR
TTITLE18=Birthday
TTITLE19=Helter Skelter
TTITLE20=Dear Prudence
TTITLE21=Not Guilty
EXTD=
EXTT0=
EXTT1=
EXTT2=
EXTT3=
EXTT4=
EXTT5=
EXTT6=
EXTT7=
EXTT8=
EXTT9=
EXTT10=
EXTT11=
EXTT12=
EXTT13=
EXTT14=
EXTT15=
EXTT16=
EXTT17=
EXTT18=
EXTT19=
EXTT20=
EXTT21=
PLAYORDER=
